<?xml version="1.0" encoding="iso-8859-1"?>
<!-- Generator: Adobe Illustrator 16.0.0, SVG Export Plug-In . SVG Version: 6.00 Build 0)  -->
<!DOCTYPE svg PUBLIC "-//W3C//DTD SVG 1.1//EN" "http://www.w3.org/Graphics/SVG/1.1/DTD/svg11.dtd">
<svg version="1.1" id="Capa_1" xmlns="http://www.w3.org/2000/svg" xmlns:xlink="http://www.w3.org/1999/xlink" x="0px" y="0px"
	 width="361.141px" height="361.141px" viewBox="0 0 361.141 361.141" style="enable-background:new 0 0 361.141 361.141;"
	 xml:space="preserve">
<g>
	<g>
		<path d="M301.717,195.543c40.574-1.009,59.424-19.278,59.424-41.728c0-19.467-14.189-35.779-44.399-40.448
			c0.15-7.305,0.156-14.315,0.156-20.789H129.121c0,31.561,0.03,75.471,17.444,107.396c34.828,1.699,65.8,10.232,89.104,23.377
			c7.225,4.077,13.733,8.58,19.366,13.469c1.801,1.572,3.501,3.188,5.128,4.84c33.375-1.472,56.739-4.864,56.739-8.815
			c0-3.183-15.271-5.999-38.688-7.746C288.591,217.28,296.169,207.078,301.717,195.543z M336.989,154.254
			c-0.216,12.112-6.203,20.26-28.288,22.896c4.257-14.598,6.311-30.265,7.295-45.402C332.27,135.54,337.182,143.683,336.989,154.254
			z M151.792,104.876h29.354c-13.166,43.042,9.041,100.262,9.041,100.262C142.194,168.354,151.792,104.876,151.792,104.876z"/>
		<path d="M258.17,36.025c-15.853,5.302-28.979,14.168-30.931,31.847c-0.786,7.128,10.347,7.047,11.127,0
			c3.729-33.825,78.399-16.903,62.835-60.813c-2.379-6.714-13.127-3.825-10.725,2.96C297.31,29.27,271.375,31.612,258.17,36.025z"/>
		<path d="M291.365,44.198c-14.556,3.432-27.862,9.667-32.402,24.977c-2.041,6.894,8.695,9.821,10.725,2.958
			c5.014-16.904,27.22-17.186,41.397-21.305c15.228-4.419,23.935-14.973,21.845-31.162c-0.9-7.011-12.033-7.104-11.12,0
			C324.331,39.244,306.316,40.67,291.365,44.198z"/>
		<path d="M133.733,357.895c73.745,0,133.739-32.732,133.739-72.971c0-15.93-9.421-30.666-25.347-42.676
			c-0.9-0.679-1.812-1.339-2.75-2c-9.391-6.604-20.812-12.297-33.746-16.812c-15.049-5.261-32.132-8.924-50.462-10.545
			c-6.978-0.612-14.135-0.942-21.428-0.942C59.994,211.948,0,244.68,0,284.93C-0.006,325.162,59.988,357.895,133.733,357.895z
			 M78.48,254.078c5.089,0,9.223,4.131,9.223,9.223c0,3.009,1.69,6.113,4.666,9.014c4.377-9.134,20.98-15.943,40.854-15.943
			c20.371,0,37.35,7.152,41.193,16.634c3.435-3.093,5.347-6.455,5.347-9.704c0-5.092,4.135-9.223,9.224-9.223s9.22,4.131,9.22,9.223
			c0,22.698-28.318,40.479-64.473,40.479s-64.477-17.78-64.477-40.479C69.256,258.209,73.388,254.078,78.48,254.078z"/>
	</g>
</g>
<g>
</g>
<g>
</g>
<g>
</g>
<g>
</g>
<g>
</g>
<g>
</g>
<g>
</g>
<g>
</g>
<g>
</g>
<g>
</g>
<g>
</g>
<g>
</g>
<g>
</g>
<g>
</g>
<g>
</g>
</svg>
