<?xml version="1.0" standalone="no"?>
<!DOCTYPE svg PUBLIC "-//W3C//DTD SVG 20010904//EN"
 "http://www.w3.org/TR/2001/REC-SVG-20010904/DTD/svg10.dtd">
<svg version="1.0" xmlns="http://www.w3.org/2000/svg"
 width="20" height="20" viewBox="0 0 260.000000 260.000000"
 preserveAspectRatio="xMidYMid meet">

<g transform="translate(0.000000,260.000000) scale(0.100000,-0.100000)"
fill="#000000" stroke="none">
<path d="M1129 2371 c-229 -42 -418 -139 -582 -300 -145 -141 -240 -302 -295
-498 -24 -90 -27 -113 -27 -273 0 -160 3 -183 27 -273 54 -191 149 -355 285
-490 141 -139 300 -232 488 -284 92 -25 115 -28 275 -28 160 0 183 3 273 27
190 53 339 139 480 277 145 141 240 302 295 498 24 90 27 113 27 273 0 160 -3
183 -27 273 -89 317 -309 577 -603 713 -136 63 -241 85 -415 89 -85 2 -176 0
-201 -4z m223 -288 c76 -130 148 -294 148 -339 0 -12 -33 -14 -201 -14 l-201
0 6 32 c14 72 175 398 196 398 3 0 27 -35 52 -77z m-386 -69 c-24 -54 -53
-130 -66 -169 -40 -129 -18 -115 -190 -115 -82 0 -150 4 -150 9 0 15 90 132
138 179 70 67 138 116 226 161 44 22 81 39 83 37 2 -1 -16 -47 -41 -102z m805
11 c40 -26 99 -72 131 -103 55 -52 138 -163 138 -183 0 -5 -68 -9 -150 -9
-172 0 -150 -13 -190 115 -12 39 -42 113 -66 166 -24 53 -44 99 -44 102 0 12
108 -41 181 -88z m-945 -725 l2 -220 -179 0 -179 0 -10 25 c-5 14 -14 63 -20
110 -11 86 -1 225 20 280 l10 25 177 0 178 0 1 -220z m738 188 c18 -88 18
-218 1 -312 l-17 -96 -248 0 -249 0 -8 58 c-4 31 -8 104 -8 162 0 58 4 131 8
163 l8 57 253 0 254 0 6 -32z m595 -23 c8 -29 13 -99 13 -165 0 -66 -5 -136
-13 -165 l-14 -50 -180 -3 -180 -2 -1 220 -1 220 181 -2 181 -3 14 -50z
m-1290 -617 c5 -13 19 -54 31 -93 13 -38 42 -114 66 -168 24 -53 44 -99 44
-102 0 -3 -26 7 -57 21 -80 35 -187 107 -256 173 -54 51 -137 162 -137 182 0
5 68 9 150 9 147 0 151 -1 159 -22z m627 -10 c-14 -72 -175 -398 -196 -398 -7
0 -86 132 -123 205 -29 59 -77 190 -77 211 0 12 33 14 201 14 l202 0 -7 -32z
m544 23 c0 -20 -83 -131 -137 -182 -69 -66 -176 -138 -255 -173 -32 -14 -58
-24 -58 -22 0 2 17 41 39 87 21 46 51 122 66 169 47 146 22 130 195 130 82 0
150 -4 150 -9z"/>
</g>
</svg>
