<?xml version="1.0" standalone="no"?>
<!DOCTYPE svg PUBLIC "-//W3C//DTD SVG 20010904//EN"
 "http://www.w3.org/TR/2001/REC-SVG-20010904/DTD/svg10.dtd">
<svg version="1.0" xmlns="http://www.w3.org/2000/svg"
 width="38.000000pt" height="40.000000pt" viewBox="0 0 38.000000 40.000000"
 preserveAspectRatio="xMidYMid meet">

<g transform="translate(0.000000,40.000000) scale(0.100000,-0.100000)"
fill="#000000" stroke="none">
<path d="M62 348 c-8 -8 -12 -54 -12 -150 l0 -138 145 0 145 0 0 104 c0 114
-4 122 -60 128 -30 3 -36 7 -40 33 l-5 30 -80 3 c-54 2 -84 -1 -93 -10z m166
-140 l3 -128 -25 0 c-21 0 -25 5 -28 33 -2 27 -7 32 -28 32 -21 0 -26 -5 -28
-32 -3 -27 -7 -33 -28 -33 l-24 0 0 123 c0 68 3 127 7 131 4 4 39 5 78 4 l70
-3 3 -127z m90 -35 l3 -93 -36 0 c-34 0 -35 1 -35 40 0 33 3 40 20 40 11 0 20
5 20 10 0 6 -9 10 -20 10 -11 0 -20 5 -20 10 0 6 9 10 20 10 11 0 20 5 20 10
0 6 -9 10 -20 10 -15 0 -20 7 -20 26 0 23 3 25 33 22 l32 -3 3 -92z m-158 -68
c0 -16 -6 -25 -15 -25 -15 0 -21 31 -8 43 13 14 23 6 23 -18z"/>
<path d="M110 280 c0 -5 18 -10 40 -10 22 0 40 5 40 10 0 6 -18 10 -40 10 -22
0 -40 -4 -40 -10z"/>
<path d="M110 240 c0 -5 18 -10 41 -10 24 0 38 4 34 10 -3 6 -22 10 -41 10
-19 0 -34 -4 -34 -10z"/>
<path d="M115 200 c-4 -6 10 -10 35 -10 25 0 39 4 35 10 -3 6 -19 10 -35 10
-16 0 -32 -4 -35 -10z"/>
</g>
</svg>
